# xmcd
# 
# Track frame offsets:
#     150
#     13625
#     32865
#     49165
#     69301
#     83330
#     87124
#     103181
#     118426
#     139089
# 
# Disc length: 2095
# 
# Revision: 5
# Processed by: cddbd v1.5.2PL0 Copyright (c) Steve Scherf et al.
# Submitted via: fre:ac v1.0.31
# 
DISCID=7f082d0a
DTITLE=Band Of Horses - Cease To Begin
DYEAR=2007
DGENRE=Rock/Pop
TTITLE0=Is There A Ghost
TTITLE1=Ode To LRC
TTITLE2=No One's Gonna Love You
TTITLE3=Detlef Schrempf
TTITLE4=The General Specific
TTITLE5=Lamb On The Lam (In The City)
TTITLE6=Islands On The Coast
TTITLE7=Marry Song
TTITLE8=Cigarettes, Wedding Bands
TTITLE9=Window Blues
EXTD=YEAR: 2007
EXTT0=
EXTT1=
EXTT2=
EXTT3=
EXTT4=
EXTT5=
EXTT6=
EXTT7=
EXTT8=
EXTT9=
PLAYORDER=
